<svg width="20" height="20" viewBox="0 0 20 20" fill="none" xmlns="http://www.w3.org/2000/svg">
<g opacity="0.5">
<path d="M13.7497 0H6.24988C2.7987 0 0 2.7987 0 6.24988V13.7497C0 17.2009 2.7987 19.9996 6.24988 19.9996H13.7497C17.2009 19.9996 19.9996 17.2009 19.9996 13.7497V6.24988C19.9996 2.7987 17.2009 0 13.7497 0ZM18.1246 13.7497C18.1246 16.1622 16.1622 18.1246 13.7497 18.1246H6.24988C3.83742 18.1246 1.87496 16.1622 1.87496 13.7497V6.24988C1.87496 3.83742 3.83742 1.87496 6.24988 1.87496H13.7497C16.1622 1.87496 18.1246 3.83742 18.1246 6.24988V13.7497Z" fill="white"/>
<path d="M9.9998 5C7.2386 5 4.9999 7.23871 4.9999 9.9999C4.9999 12.7611 7.2386 14.9998 9.9998 14.9998C12.761 14.9998 14.9997 12.7611 14.9997 9.9999C14.9997 7.23871 12.761 5 9.9998 5ZM9.9998 13.1248C8.27733 13.1248 6.87486 11.7224 6.87486 9.9999C6.87486 8.27619 8.27733 6.87496 9.9998 6.87496C11.7223 6.87496 13.1247 8.27619 13.1247 9.9999C13.1247 11.7224 11.7223 13.1248 9.9998 13.1248Z" fill="white"/>
<path d="M15.3733 5.29146C15.7412 5.29146 16.0395 4.99317 16.0395 4.62522C16.0395 4.25727 15.7412 3.95898 15.3733 3.95898C15.0053 3.95898 14.707 4.25727 14.707 4.62522C14.707 4.99317 15.0053 5.29146 15.3733 5.29146Z" fill="white"/>
</g>
</svg>
