<svg width="146" height="146" viewBox="0 0 146 146" fill="none" xmlns="http://www.w3.org/2000/svg">
<g clip-path="url(#clip0_5_84)">
<path d="M88.1192 84.0528C90.1328 83.5539 89.9925 83.786 89.4977 81.7715L84.4774 73.943C82.4688 70.8108 81.7529 67.019 82.4803 63.3647L83.9228 56.117C83.428 54.1025 84.4423 54.7153 82.4287 55.2142L77.9936 59.4763C74.9316 62.4187 70.7306 63.8605 66.5138 63.4162L55.9978 62.3083C53.9842 62.8072 54.6845 61.6483 55.1794 63.6628L60.1569 68.626C64.0777 72.5355 65.4025 78.3557 63.5627 83.5886L61.4376 89.6329C61.9325 91.6475 61.2739 91.2495 63.2875 90.7506L67.5735 86.1403C71.3897 82.0354 77.2347 80.5155 82.5554 82.2446L88.1192 84.0528Z" fill="white"/>
<path d="M52.9066 48.8907C50.664 42.5335 44.1882 38.5174 37.5566 39.7228C33.897 40.3883 30.4599 42.5274 28.2648 46.1603C26.0696 49.7933 25.7722 53.8314 26.8867 57.3815C28.9039 63.8128 35.4719 67.6763 42.1419 66.7063L58.3584 64.3458L52.9058 48.8922L52.9066 48.8907Z" fill="white" stroke="white" stroke-width="1.30788" stroke-miterlimit="10"/>
<path d="M56.5611 63.2599L68.7716 70.6378L56.5611 63.2599Z" fill="white"/>
<path d="M56.5611 63.2599L68.7716 70.6378" stroke="white" stroke-width="2.61577" stroke-miterlimit="10"/>
<path d="M97.0754 52.9407C103.431 50.6848 107.454 44.1959 106.262 37.5603C105.604 33.8984 103.473 30.462 99.8468 28.2712C96.2211 26.0804 92.1886 25.7907 88.6384 26.9116C82.2095 28.9421 78.338 35.523 79.2954 42.1975L81.6251 58.4248L97.074 52.9399L97.0754 52.9407Z" fill="white" stroke="white" stroke-width="1.30788" stroke-miterlimit="10"/>
<path d="M82.7131 56.6241L75.3204 68.859L82.7131 56.6241Z" fill="white"/>
<path d="M82.7131 56.6241L75.3204 68.859" stroke="white" stroke-width="2.61577" stroke-miterlimit="10"/>
<path d="M92.9249 97.391C95.1675 103.748 101.643 107.764 108.275 106.559C111.935 105.893 115.372 103.754 117.567 100.121C119.762 96.4885 120.059 92.4504 118.945 88.9003C116.928 82.469 110.36 78.6055 103.69 79.5755L87.4732 81.936L92.9258 97.3896L92.9249 97.391Z" fill="white" stroke="white" stroke-width="1.30788" stroke-miterlimit="10"/>
<path d="M89.2695 83.0234L77.059 75.6454L89.2695 83.0234Z" fill="white"/>
<path d="M89.2695 83.0234L77.059 75.6454" stroke="white" stroke-width="2.61577" stroke-miterlimit="10"/>
<path d="M48.6483 92.8925C42.293 95.1484 38.2692 101.637 39.4618 108.273C40.1202 111.935 42.2512 115.371 45.8769 117.562C49.5027 119.753 53.5351 120.043 57.0853 118.922C63.5142 116.891 67.3857 110.31 66.4283 103.636L64.0987 87.4084L48.6497 92.8934L48.6483 92.8925Z" fill="white" stroke="white" stroke-width="1.30788" stroke-miterlimit="10"/>
<path d="M63.0091 89.2084L70.4018 76.9735L63.0091 89.2084Z" fill="white"/>
<path d="M63.0091 89.2084L70.4018 76.9735" stroke="white" stroke-width="2.61577" stroke-miterlimit="10"/>
</g>
<defs>
<clipPath id="clip0_5_84">
<rect width="106" height="106" fill="white" transform="translate(55.0471 0.228491) rotate(31.1417)"/>
</clipPath>
</defs>
</svg>
